<svg width="24" height="24" viewBox="0 0 24 24" fill="none" xmlns="http://www.w3.org/2000/svg">
<path d="M12 2V8C12 8.53043 12.2107 9.03914 12.5858 9.41421C12.9609 9.78929 13.4696 10 14 10H20V20C20 20.5304 19.7893 21.0391 19.4142 21.4142C19.0391 21.7893 18.5304 22 18 22H12.95C12.983 21.838 13 21.671 13 21.5V14.621C12.9999 13.9583 12.7366 13.3227 12.268 12.854L11.146 11.732C10.6776 11.2637 10.0424 11.0004 9.38 11H4V4C4 3.46957 4.21071 2.96086 4.58579 2.58579C4.96086 2.21071 5.46957 2 6 2H12ZM13.5 2.5V8C13.5 8.13261 13.5527 8.25979 13.6464 8.35355C13.7402 8.44732 13.8674 8.5 14 8.5H19.5L13.5 2.5ZM5 12H8V14H5V12ZM2.5 12H4V14.5C4 14.6326 4.05268 14.7598 4.14645 14.8536C4.24021 14.9473 4.36739 15 4.5 15H8.5C8.63261 15 8.75979 14.9473 8.85355 14.8536C8.94732 14.7598 9 14.6326 9 14.5V12H9.379C9.77669 12.0004 10.158 12.1586 10.439 12.44L11.561 13.56C11.7004 13.6995 11.8109 13.8651 11.8862 14.0473C11.9616 14.2295 12.0002 14.4248 12 14.622V21.5C12 21.8978 11.842 22.2794 11.5607 22.5607C11.2794 22.842 10.8978 23 10.5 23H10V17.5C10 17.3674 9.94732 17.2402 9.85355 17.1464C9.75979 17.0527 9.63261 17 9.5 17H3.5C3.36739 17 3.24021 17.0527 3.14645 17.1464C3.05268 17.2402 3 17.3674 3 17.5V23H2.5C2.10218 23 1.72064 22.842 1.43934 22.5607C1.15804 22.2794 1 21.8978 1 21.5V13.5C1 13.1022 1.15804 12.7206 1.43934 12.4393C1.72064 12.158 2.10218 12 2.5 12V12ZM9 18V23H4V18H9Z" fill="black"/>
</svg>
