<svg width="27" height="27" viewBox="0 0 27 27" fill="none" xmlns="http://www.w3.org/2000/svg">
<path fill-rule="evenodd" clip-rule="evenodd" d="M9.054 6.2466C8.8571 6.04956 8.62332 5.89322 8.36601 5.78653C8.1087 5.67983 7.83289 5.62486 7.55433 5.62476C7.27577 5.62465 6.99992 5.67941 6.74252 5.78592C6.48513 5.89242 6.25123 6.04858 6.05419 6.24547L5.65819 6.64148C5.27528 6.53244 4.87012 6.52822 4.48502 6.62924C4.09993 6.73027 3.74901 6.93283 3.46894 7.21579C3.04835 7.64065 2.81242 8.21433 2.81242 8.81216C2.81242 9.41 3.04835 9.98367 3.46894 10.4085L3.9375 10.8805V16.875H2.25V18H3.40313C3.12377 18.2737 2.93227 18.6245 2.85304 19.0074C2.77381 19.3904 2.81044 19.7883 2.95826 20.1504C3.10608 20.5125 3.35839 20.8223 3.68302 21.0404C4.00765 21.2586 4.38988 21.375 4.78097 21.375C5.17206 21.375 5.55429 21.2586 5.87892 21.0404C6.20355 20.8223 6.45586 20.5125 6.60368 20.1504C6.75149 19.7883 6.78813 19.3904 6.70889 19.0074C6.62966 18.6245 6.43816 18.2737 6.15881 18H20.8412C20.5618 18.2737 20.3703 18.6245 20.2911 19.0074C20.2119 19.3904 20.2485 19.7883 20.3963 20.1504C20.5441 20.5125 20.7965 20.8223 21.1211 21.0404C21.4457 21.2586 21.8279 21.375 22.219 21.375C22.6101 21.375 22.9924 21.2586 23.317 21.0404C23.6416 20.8223 23.8939 20.5125 24.0417 20.1504C24.1896 19.7883 24.2262 19.3904 24.147 19.0074C24.0677 18.6245 23.8762 18.2737 23.5969 18H24.75V16.875H22.5V15.124C22.983 15.0031 23.4117 14.7239 23.7175 14.331C24.0234 13.9381 24.1888 13.454 24.1875 12.9561C24.1875 11.7242 23.1969 10.7247 21.9746 10.7247H10.1869C10.1641 10.7247 10.1416 10.7203 10.1205 10.7116C10.0995 10.7029 10.0803 10.6901 10.0642 10.674L9.85837 10.4659L10.0659 10.2595C10.263 10.0626 10.4194 9.82878 10.5261 9.57144C10.6327 9.3141 10.6877 9.03826 10.6877 8.75969C10.6878 8.48111 10.6329 8.20525 10.5264 7.94787C10.4198 7.69049 10.2635 7.45663 10.0665 7.25966L9.054 6.24716V6.2466ZM9.06525 9.66829L9.27056 9.46354C9.36309 9.37108 9.43648 9.26129 9.48656 9.14045C9.53664 9.01961 9.56241 8.89009 9.56241 8.75929C9.56241 8.62848 9.53664 8.49896 9.48656 8.37812C9.43648 8.25729 9.36309 8.1475 9.27056 8.05504L8.25806 7.04254C8.0714 6.85567 7.81817 6.75057 7.55405 6.75036C7.28992 6.75015 7.03652 6.85484 6.84956 7.04141L6.65269 7.23829L9.06581 9.66829H9.06525ZM21.375 16.875H5.0625V12.0128L8.02969 15.0002C8.14894 15.12 8.30981 15.1875 8.478 15.1875H21.375V16.875Z" fill="#27C137"/>
</svg>
