<svg width="24" height="27" viewBox="0 0 24 27" fill="none" xmlns="http://www.w3.org/2000/svg">
<path d="M14 6.50938C14 5.316 13.1 4.3396 12 4.3396C10.9 4.3396 10 5.316 10 6.50938C10 7.70277 10.9 8.67917 12 8.67917C13.1 8.67917 14 7.70277 14 6.50938ZM14 19.5281C14 18.3347 13.1 17.3583 12 17.3583C10.9 17.3583 10 18.3347 10 19.5281C10 20.7215 10.9 21.6979 12 21.6979C13.1 21.6979 14 20.7215 14 19.5281ZM14 13.0187C14 11.8254 13.1 10.849 12 10.849C10.9 10.849 10 11.8254 10 13.0187C10 14.2121 10.9 15.1885 12 15.1885C13.1 15.1885 14 14.2121 14 13.0187Z" fill="#666464"/>
</svg>
