<svg width="44" height="46" viewBox="0 0 44 46" fill="none" xmlns="http://www.w3.org/2000/svg">
<path d="M27.4998 30.6667H34.8332V23H32.0832V27.7917H27.4998V30.6667ZM9.1665 19.1667H11.9165V14.375H16.4998V11.5H9.1665V19.1667ZM14.6665 40.25V36.4167H7.33317C6.32484 36.4167 5.46195 36.0416 4.7445 35.2916C4.02584 34.5402 3.6665 33.6375 3.6665 32.5833V9.58333C3.6665 8.52917 4.02584 7.62642 4.7445 6.87508C5.46195 6.12503 6.32484 5.75 7.33317 5.75H36.6665C37.6748 5.75 38.5383 6.12503 39.257 6.87508C39.9744 7.62642 40.3332 8.52917 40.3332 9.58333V32.5833C40.3332 33.6375 39.9744 34.5402 39.257 35.2916C38.5383 36.0416 37.6748 36.4167 36.6665 36.4167H29.3332V40.25H14.6665ZM7.33317 32.5833H36.6665V9.58333H7.33317V32.5833ZM7.33317 32.5833V9.58333V32.5833Z" fill="#666464"/>
</svg>
