<svg width="24" height="24" viewBox="0 0 24 24" fill="none" xmlns="http://www.w3.org/2000/svg">
<path d="M12 21L0 9C1.6 7.36667 3.43333 6.125 5.5 5.275C7.56667 4.425 9.73333 4 12 4C14.2833 4 16.4583 4.425 18.525 5.275C20.5917 6.125 22.4167 7.36667 24 9L12 21ZM7.475 13.625C8.10833 13.1583 8.80833 12.7957 9.575 12.537C10.3417 12.279 11.15 12.15 12 12.15C12.85 12.15 13.6583 12.279 14.425 12.537C15.1917 12.7957 15.8917 13.1583 16.525 13.625L21.1 9.05C19.8 8.06667 18.3793 7.31233 16.838 6.787C15.296 6.26233 13.6833 6 12 6C10.3167 6 8.704 6.26233 7.162 6.787C5.62067 7.31233 4.2 8.06667 2.9 9.05L7.475 13.625Z" fill="#666464"/>
</svg>
