<svg width="23" height="23" viewBox="0 0 23 23" fill="none" xmlns="http://www.w3.org/2000/svg">
<path d="M4.79167 22.7125C4.26458 22.7125 3.81321 22.5247 3.43754 22.149C3.06251 21.774 2.875 21.3229 2.875 20.7959V7.37918C2.875 6.8521 3.06251 6.40072 3.43754 6.02506C3.81321 5.65003 4.26458 5.46252 4.79167 5.46252H13.3448L11.4281 7.37918H4.79167V20.7959H18.2083V14.1354L20.125 12.2188V20.7959C20.125 21.3229 19.9375 21.774 19.5625 22.149C19.1868 22.5247 18.7354 22.7125 18.2083 22.7125H4.79167ZM15.501 6.01356L16.8667 7.35522L10.5417 13.6802V15.0458H11.8833L18.2323 8.69689L19.5979 10.0386L13.249 16.3875C13.0733 16.5632 12.8698 16.7031 12.6385 16.8073C12.4066 16.9108 12.1628 16.9625 11.9073 16.9625H9.58333C9.31181 16.9625 9.08436 16.8708 8.901 16.6875C8.717 16.5035 8.625 16.2757 8.625 16.0042V13.6802C8.625 13.4247 8.67292 13.1809 8.76875 12.949C8.86458 12.7177 9.00035 12.5143 9.17604 12.3386L15.501 6.01356ZM19.5979 10.0386L15.501 6.01356L17.8969 3.61772C18.2802 3.23439 18.7396 3.04272 19.275 3.04272C19.8097 3.04272 20.2608 3.23439 20.6281 3.61772L21.9698 4.98335C22.3372 5.35071 22.5208 5.79793 22.5208 6.32502C22.5208 6.8521 22.3372 7.29932 21.9698 7.66668L19.5979 10.0386Z" fill="#666464"/>
</svg>
