<svg width="17" height="17" viewBox="0 0 17 17" fill="none" xmlns="http://www.w3.org/2000/svg">
<path d="M12.0417 8.49996V2.12496C12.0417 1.9371 11.967 1.75693 11.8342 1.62409C11.7014 1.49125 11.5212 1.41663 11.3333 1.41663H2.12501C1.93714 1.41663 1.75698 1.49125 1.62414 1.62409C1.4913 1.75693 1.41667 1.9371 1.41667 2.12496V12.0416L4.25001 9.20829H11.3333C11.5212 9.20829 11.7014 9.13367 11.8342 9.00083C11.967 8.86799 12.0417 8.68782 12.0417 8.49996ZM14.875 4.24996H13.4583V10.625H4.25001V12.0416C4.25001 12.2295 4.32463 12.4097 4.45747 12.5425C4.59031 12.6753 4.77048 12.75 4.95834 12.75H12.75L15.5833 15.5833V4.95829C15.5833 4.77043 15.5087 4.59026 15.3759 4.45743C15.243 4.32459 15.0629 4.24996 14.875 4.24996Z" fill="black"/>
</svg>
