<svg width="15" height="15" viewBox="0 0 15 15" fill="none" xmlns="http://www.w3.org/2000/svg">
<path d="M11.0417 7.49996V1.12496C11.0417 0.937098 10.967 0.75693 10.8342 0.624092C10.7014 0.491254 10.5212 0.416626 10.3333 0.416626H1.12501C0.937143 0.416626 0.756976 0.491254 0.624138 0.624092C0.491299 0.75693 0.416672 0.937098 0.416672 1.12496V11.0416L3.25001 8.20829H10.3333C10.5212 8.20829 10.7014 8.13367 10.8342 8.00083C10.967 7.86799 11.0417 7.68782 11.0417 7.49996ZM13.875 3.24996H12.4583V9.62496H3.25001V11.0416C3.25001 11.2295 3.32463 11.4097 3.45747 11.5425C3.59031 11.6753 3.77048 11.75 3.95834 11.75H11.75L14.5833 14.5833V3.95829C14.5833 3.77043 14.5087 3.59026 14.3759 3.45743C14.243 3.32459 14.0629 3.24996 13.875 3.24996Z" fill="black"/>
</svg>
