<svg width="24" height="9" viewBox="0 0 24 9" fill="none" xmlns="http://www.w3.org/2000/svg">
<path d="M12 0C13.9667 0 15.904 0.396 17.812 1.188C19.7207 1.97933 21.4167 3.16667 22.9 4.75C23.1 4.95 23.2 5.18333 23.2 5.45C23.2 5.71667 23.1 5.95 22.9 6.15L20.6 8.4C20.4167 8.58333 20.2043 8.68333 19.963 8.7C19.721 8.71667 19.5 8.65 19.3 8.5L16.4 6.3C16.2667 6.2 16.1667 6.08333 16.1 5.95C16.0333 5.81667 16 5.66667 16 5.5V2.65C15.3667 2.45 14.7167 2.29167 14.05 2.175C13.3833 2.05833 12.7 2 12 2C11.3 2 10.6167 2.05833 9.95 2.175C9.28333 2.29167 8.63333 2.45 8 2.65V5.5C8 5.66667 7.96667 5.81667 7.9 5.95C7.83333 6.08333 7.73333 6.2 7.6 6.3L4.7 8.5C4.5 8.65 4.27933 8.71667 4.038 8.7C3.796 8.68333 3.58333 8.58333 3.4 8.4L1.1 6.15C0.899999 5.95 0.799999 5.71667 0.799999 5.45C0.799999 5.18333 0.899999 4.95 1.1 4.75C2.56667 3.16667 4.25833 1.97933 6.175 1.188C8.09167 0.396 10.0333 0 12 0Z" fill="black"/>
</svg>
